{"asset":{"version":"2.0","generator":"Blockbench 4.10.3 glTF exporter"},"scenes":[{"nodes":[2],"name":"blockbench_export"}],"scene":0,"nodes":[{"name":"tube","mesh":0},{"rotation":[0,-0.08715574274765817,0,0.9961946980917455],"translation":[0,0.125,0],"name":"plane","mesh":1},{"children":[0,1]}],"bufferViews":[{"buffer":0,"byteOffset":0,"byteLength":1152,"target":34962,"byteStride":12},{"buffer":0,"byteOffset":1152,"byteLength":1152,"target":34962,"byteStride":12},{"buffer":0,"byteOffset":2304,"byteLength":768,"target":34962,"byteStride":8},{"buffer":0,"byteOffset":3072,"byteLength":288,"target":34963},{"buffer":0,"byteOffset":3360,"byteLength":144,"target":34962,"byteStride":12},{"buffer":0,"byteOffset":3504,"byteLength":144,"target":34962,"byteStride":12},{"buffer":0,"byteOffset":3648,"byteLength":96,"target":34962,"byteStride":8},{"buffer":0,"byteOffset":3744,"byteLength":24,"target":34963}],"buffers":[{"byteLength":3768,"uri":"data:application/octet-stream;base64,"}],"accessors":[{"bufferView":0,"componentType":5126,"count":96,"max":[1.1875,0.4375,1.1875],"min":[-1.1875,0,-1.1875],"type":"VEC3"},{"bufferView":1,"componentType":5126,"count":96,"max":[0.9934585690498352,1,0.9934585690498352],"min":[-0.9934585690498352,-0.1414213627576828,-0.9934585690498352],"type":"VEC3"},{"bufferView":2,"componentType":5126,"count":96,"max":[0.49898460507392883,0.482345312833786],"min":[0,0],"type":"VEC2"},{"bufferView":3,"componentType":5123,"count":144,"max":[95],"min":[0],"type":"SCALAR"},{"bufferView":4,"componentType":5126,"count":12,"max":[1,0,1],"min":[-1,0,-0.9985429048538208],"type":"VEC3"},{"bufferView":5,"componentType":5126,"count":12,"max":[0,1,0],"min":[0,1,0],"type":"VEC3"},{"bufferView":6,"componentType":5126,"count":12,"max":[0.21606916189193726,0.24977001547813416],"min":[0.00011498926323838532,0],"type":"VEC2"},{"bufferView":7,"componentType":5123,"count":12,"max":[11],"min":[0],"type":"SCALAR"}],"materials":[{"pbrMetallicRoughness":{"metallicFactor":0,"roughnessFactor":1,"baseColorTexture":{"index":0}},"alphaMode":"MASK","alphaCutoff":0.05,"doubleSided":true}],"textures":[{"sampler":0,"source":0,"name":"афт"}],"samplers":[{"magFilter":9728,"minFilter":9728,"wrapS":33071,"wrapT":33071}],"images":[{"mimeType":"image/png","uri":"data:image/png;base64,"}],"meshes":[{"primitives":[{"mode":4,"attributes":{"POSITION":0,"NORMAL":1,"TEXCOORD_0":2},"indices":3,"material":0}]},{"primitives":[{"mode":4,"attributes":{"POSITION":4,"NORMAL":5,"TEXCOORD_0":6},"indices":7,"material":0}]}]}