{"asset":{"version":"2.0","generator":"Blockbench 4.10.3 glTF exporter"},"scenes":[{"nodes":[7],"name":"blockbench_export"}],"scene":0,"nodes":[{"translation":[0,-0.0625,0],"name":"cuboid","mesh":0},{"rotation":[0.7071067811865475,0,0,0.7071067811865476],"translation":[0.125,0.125,0.3125],"name":"cuboid","mesh":1},{"rotation":[0.7071067811865475,0,0,0.7071067811865476],"translation":[-0.125,0.125,0.3125],"name":"cuboid","mesh":2},{"translation":[0,0,0.3125],"name":"cuboid","mesh":3},{"rotation":[0,0,-0.7071067811865475,0.7071067811865476],"translation":[0.125,0.125,0.0625],"name":"cuboid","mesh":4},{"rotation":[0,0,0.3826834323650898,0.9238795325112867],"translation":[-0.1875,0.125,0.0625],"name":"cuboid","mesh":5},{"rotation":[-0.6532814684356769,-0.2705980449766011,0.2705980551695956,0.6532814964406994],"translation":[0,0.1875,0.125],"name":"cuboid","mesh":6},{"children":[0,1,2,3,4,5,6]}],"bufferViews":[{"buffer":0,"byteOffset":0,"byteLength":672,"target":34962,"byteStride":12},{"buffer":0,"byteOffset":672,"byteLength":672,"target":34962,"byteStride":12},{"buffer":0,"byteOffset":1344,"byteLength":448,"target":34962,"byteStride":8},{"buffer":0,"byteOffset":1792,"byteLength":168,"target":34963},{"buffer":0,"byteOffset":1960,"byteLength":288,"target":34962,"byteStride":12},{"buffer":0,"byteOffset":2248,"byteLength":288,"target":34962,"byteStride":12},{"buffer":0,"byteOffset":2536,"byteLength":192,"target":34962,"byteStride":8},{"buffer":0,"byteOffset":2728,"byteLength":72,"target":34963},{"buffer":0,"byteOffset":2800,"byteLength":288,"target":34962,"byteStride":12},{"buffer":0,"byteOffset":3088,"byteLength":288,"target":34962,"byteStride":12},{"buffer":0,"byteOffset":3376,"byteLength":192,"target":34962,"byteStride":8},{"buffer":0,"byteOffset":3568,"byteLength":72,"target":34963},{"buffer":0,"byteOffset":3640,"byteLength":288,"target":34962,"byteStride":12},{"buffer":0,"byteOffset":3928,"byteLength":288,"target":34962,"byteStride":12},{"buffer":0,"byteOffset":4216,"byteLength":192,"target":34962,"byteStride":8},{"buffer":0,"byteOffset":4408,"byteLength":72,"target":34963},{"buffer":0,"byteOffset":4480,"byteLength":240,"target":34962,"byteStride":12},{"buffer":0,"byteOffset":4720,"byteLength":240,"target":34962,"byteStride":12},{"buffer":0,"byteOffset":4960,"byteLength":160,"target":34962,"byteStride":8},{"buffer":0,"byteOffset":5120,"byteLength":60,"target":34963},{"buffer":0,"byteOffset":5180,"byteLength":480,"target":34962,"byteStride":12},{"buffer":0,"byteOffset":5660,"byteLength":480,"target":34962,"byteStride":12},{"buffer":0,"byteOffset":6140,"byteLength":320,"target":34962,"byteStride":8},{"buffer":0,"byteOffset":6460,"byteLength":120,"target":34963},{"buffer":0,"byteOffset":6580,"byteLength":168,"target":34962,"byteStride":12},{"buffer":0,"byteOffset":6748,"byteLength":168,"target":34962,"byteStride":12},{"buffer":0,"byteOffset":6916,"byteLength":112,"target":34962,"byteStride":8},{"buffer":0,"byteOffset":7028,"byteLength":36,"target":34963}],"buffers":[{"byteLength":7064,"uri":"data:application/octet-stream;base64,"}],"accessors":[{"bufferView":0,"componentType":5126,"count":56,"max":[0.25,0.3125,0.1875],"min":[-0.25,0,-0.375],"type":"VEC3"},{"bufferView":1,"componentType":5126,"count":56,"max":[1,1,1],"min":[-1,-0.9701424837112427,-1],"type":"VEC3"},{"bufferView":2,"componentType":5126,"count":56,"max":[0.484375,0.5],"min":[0,0],"type":"VEC2"},{"bufferView":3,"componentType":5123,"count":84,"max":[55],"min":[0],"type":"SCALAR"},{"bufferView":4,"componentType":5126,"count":24,"max":[0.0625,1.125,0.0625],"min":[-0.0625,0,-0.0625],"type":"VEC3"},{"bufferView":5,"componentType":5126,"count":24,"max":[1,0.4472135901451111,1],"min":[-1,-1,-1],"type":"VEC3"},{"bufferView":6,"componentType":5126,"count":24,"max":[0.46875,0.375],"min":[0.09375,0],"type":"VEC2"},{"bufferView":7,"componentType":5123,"count":36,"max":[23],"min":[0],"type":"SCALAR"},{"bufferView":8,"componentType":5126,"count":24,"max":[0.0625,1.125,0.0625],"min":[-0.0625,0,-0.0625],"type":"VEC3"},{"bufferView":9,"componentType":5126,"count":24,"max":[1,0.4472135901451111,1],"min":[-1,-1,-1],"type":"VEC3"},{"bufferView":10,"componentType":5126,"count":24,"max":[0.375,0.5],"min":[0,0],"type":"VEC2"},{"bufferView":11,"componentType":5123,"count":36,"max":[23],"min":[0],"type":"SCALAR"},{"bufferView":12,"componentType":5126,"count":24,"max":[0.125,0.25,0.125],"min":[-0.125,0,-0.125],"type":"VEC3"},{"bufferView":13,"componentType":5126,"count":24,"max":[1,1,1],"min":[-1,-1,-1],"type":"VEC3"},{"bufferView":14,"componentType":5126,"count":24,"max":[0.5,0.4375],"min":[0,0.1250000149011612],"type":"VEC2"},{"bufferView":15,"componentType":5123,"count":36,"max":[23],"min":[0],"type":"SCALAR"},{"bufferView":16,"componentType":5126,"count":20,"max":[0.0625,0.625,0.0625],"min":[-0.0625,0.125,-0.0625],"type":"VEC3"},{"bufferView":17,"componentType":5126,"count":20,"max":[1,1,1],"min":[-1,0,-1],"type":"VEC3"},{"bufferView":18,"componentType":5126,"count":20,"max":[0.375,0.484375],"min":[0.1875,0.328125],"type":"VEC2"},{"bufferView":19,"componentType":5123,"count":30,"max":[19],"min":[0],"type":"SCALAR"},{"bufferView":20,"componentType":5126,"count":40,"max":[0.0625,0.5,0.0625],"min":[-0.0625,0,-0.4375],"type":"VEC3"},{"bufferView":21,"componentType":5126,"count":40,"max":[1,1,1],"min":[-1,-1,-1],"type":"VEC3"},{"bufferView":22,"componentType":5126,"count":40,"max":[0.46875,0.515625],"min":[0.125,0],"type":"VEC2"},{"bufferView":23,"componentType":5123,"count":60,"max":[39],"min":[0],"type":"SCALAR"},{"bufferView":24,"componentType":5126,"count":14,"max":[0.125,0.3125,0.125],"min":[-0.125,0,-0.125],"type":"VEC3"},{"bufferView":25,"componentType":5126,"count":14,"max":[1,1,1],"min":[0,-1,0],"type":"VEC3"},{"bufferView":26,"componentType":5126,"count":14,"max":[0.40625,0.390625],"min":[0.1875,0],"type":"VEC2"},{"bufferView":27,"componentType":5123,"count":18,"max":[13],"min":[0],"type":"SCALAR"}],"materials":[{"pbrMetallicRoughness":{"metallicFactor":0,"roughnessFactor":1,"baseColorTexture":{"index":0}},"alphaMode":"MASK","alphaCutoff":0.05,"doubleSided":true}],"textures":[{"sampler":0,"source":0,"name":"RG.png"}],"samplers":[{"magFilter":9728,"minFilter":9728,"wrapS":33071,"wrapT":33071}],"images":[{"mimeType":"image/png","uri":"data:image/png;base64,"}],"meshes":[{"primitives":[{"mode":4,"attributes":{"POSITION":0,"NORMAL":1,"TEXCOORD_0":2},"indices":3,"material":0}]},{"primitives":[{"mode":4,"attributes":{"POSITION":4,"NORMAL":5,"TEXCOORD_0":6},"indices":7,"material":0}]},{"primitives":[{"mode":4,"attributes":{"POSITION":8,"NORMAL":9,"TEXCOORD_0":10},"indices":11,"material":0}]},{"primitives":[{"mode":4,"attributes":{"POSITION":12,"NORMAL":13,"TEXCOORD_0":14},"indices":15,"material":0}]},{"primitives":[{"mode":4,"attributes":{"POSITION":16,"NORMAL":17,"TEXCOORD_0":18},"indices":19,"material":0}]},{"primitives":[{"mode":4,"attributes":{"POSITION":20,"NORMAL":21,"TEXCOORD_0":22},"indices":23,"material":0}]},{"primitives":[{"mode":4,"attributes":{"POSITION":24,"NORMAL":25,"TEXCOORD_0":26},"indices":27,"material":0}]}]}