{"asset":{"version":"2.0","generator":"Blockbench 4.10.3 glTF exporter"},"scenes":[{"nodes":[7],"name":"blockbench_export"}],"scene":0,"nodes":[{"rotation":[0.6935199136422152,0.13794968825333637,0.13794969102960652,0.6935199316799322],"translation":[0,0.203125,0],"name":"cylinder","mesh":0},{"rotation":[0.7071067811865475,0,0,0.7071067811865476],"translation":[0,0.203125,2],"name":"cylinder","mesh":1},{"rotation":[0.7071067811865475,0,0,0.7071067811865476],"translation":[0,0.3125,0.875],"name":"cuboid","mesh":2},{"rotation":[-0.7071067811865475,0,0,0.7071067811865476],"translation":[0,0.2625,-0.4375],"name":"cuboid","mesh":3},{"rotation":[0.19509032201612825,0,0,0.9807852804032304],"translation":[0,0.0625,0.9375],"name":"cuboid","mesh":4},{"rotation":[0.19509032201612825,0,0,0.9807852804032304],"translation":[0,0.0625,1.4375],"name":"cuboid","mesh":5},{"rotation":[-0.7071067811865475,0,0,0.7071067811865476],"translation":[0,-0.303125,1.265625],"name":"cuboid","mesh":6},{"children":[0,1,2,3,4,5,6]}],"bufferViews":[{"buffer":0,"byteOffset":0,"byteLength":672,"target":34962,"byteStride":12},{"buffer":0,"byteOffset":672,"byteLength":672,"target":34962,"byteStride":12},{"buffer":0,"byteOffset":1344,"byteLength":448,"target":34962,"byteStride":8},{"buffer":0,"byteOffset":1792,"byteLength":144,"target":34963},{"buffer":0,"byteOffset":1936,"byteLength":960,"target":34962,"byteStride":12},{"buffer":0,"byteOffset":2896,"byteLength":960,"target":34962,"byteStride":12},{"buffer":0,"byteOffset":3856,"byteLength":640,"target":34962,"byteStride":8},{"buffer":0,"byteOffset":4496,"byteLength":192,"target":34963},{"buffer":0,"byteOffset":4688,"byteLength":240,"target":34962,"byteStride":12},{"buffer":0,"byteOffset":4928,"byteLength":240,"target":34962,"byteStride":12},{"buffer":0,"byteOffset":5168,"byteLength":160,"target":34962,"byteStride":8},{"buffer":0,"byteOffset":5328,"byteLength":60,"target":34963},{"buffer":0,"byteOffset":5388,"byteLength":624,"target":34962,"byteStride":12},{"buffer":0,"byteOffset":6012,"byteLength":624,"target":34962,"byteStride":12},{"buffer":0,"byteOffset":6636,"byteLength":416,"target":34962,"byteStride":8},{"buffer":0,"byteOffset":7052,"byteLength":156,"target":34963},{"buffer":0,"byteOffset":7208,"byteLength":192,"target":34962,"byteStride":12},{"buffer":0,"byteOffset":7400,"byteLength":192,"target":34962,"byteStride":12},{"buffer":0,"byteOffset":7592,"byteLength":128,"target":34962,"byteStride":8},{"buffer":0,"byteOffset":7720,"byteLength":48,"target":34963},{"buffer":0,"byteOffset":7768,"byteLength":192,"target":34962,"byteStride":12},{"buffer":0,"byteOffset":7960,"byteLength":192,"target":34962,"byteStride":12},{"buffer":0,"byteOffset":8152,"byteLength":128,"target":34962,"byteStride":8},{"buffer":0,"byteOffset":8280,"byteLength":48,"target":34963},{"buffer":0,"byteOffset":8328,"byteLength":288,"target":34962,"byteStride":12},{"buffer":0,"byteOffset":8616,"byteLength":288,"target":34962,"byteStride":12},{"buffer":0,"byteOffset":8904,"byteLength":192,"target":34962,"byteStride":8},{"buffer":0,"byteOffset":9096,"byteLength":72,"target":34963}],"buffers":[{"byteLength":9168,"uri":"data:application/octet-stream;base64,"}],"accessors":[{"bufferView":0,"componentType":5126,"count":56,"max":[0.1875,2,0.1875],"min":[-0.1875,0,-0.1875],"type":"VEC3"},{"bufferView":1,"componentType":5126,"count":56,"max":[1,0,1],"min":[-1,-1,-1],"type":"VEC3"},{"bufferView":2,"componentType":5126,"count":56,"max":[0.20294757187366486,2],"min":[0,0],"type":"VEC2"},{"bufferView":3,"componentType":5123,"count":72,"max":[55],"min":[0],"type":"SCALAR"},{"bufferView":4,"componentType":5126,"count":80,"max":[0.203125,0.125,0.203125],"min":[-0.203125,-0.1875,-0.203125],"type":"VEC3"},{"bufferView":5,"componentType":5126,"count":80,"max":[1,0.5449883341789246,1],"min":[-1,-1,-1],"type":"VEC3"},{"bufferView":6,"componentType":5126,"count":80,"max":[0.23677216470241547,0.23677217960357666],"min":[0,0],"type":"VEC2"},{"bufferView":7,"componentType":5123,"count":96,"max":[79],"min":[0],"type":"SCALAR"},{"bufferView":8,"componentType":5126,"count":20,"max":[0.171875,0.75,0.125],"min":[-0.171875,-0.375,-0.1875],"type":"VEC3"},{"bufferView":9,"componentType":5126,"count":20,"max":[0.9701424837112427,0.6401844024658203,0.7682212591171265],"min":[-0.9701424837112427,-0.6401844024658203,-1],"type":"VEC3"},{"bufferView":10,"componentType":5126,"count":20,"max":[0.25,0.75],"min":[0,0],"type":"VEC2"},{"bufferView":11,"componentType":5123,"count":30,"max":[19],"min":[0],"type":"SCALAR"},{"bufferView":12,"componentType":5126,"count":52,"max":[0.15625,1.2927992343902588,0.10146841406822205],"min":[-0.15625,-0.4375,-0.35146841406822205],"type":"VEC3"},{"bufferView":13,"componentType":5126,"count":52,"max":[1,0.8433914184570312,1],"min":[-1,-0.9595994353294373,-1],"type":"VEC3"},{"bufferView":14,"componentType":5126,"count":52,"max":[0.25,0.75],"min":[0,0],"type":"VEC2"},{"bufferView":15,"componentType":5123,"count":78,"max":[51],"min":[0],"type":"SCALAR"},{"bufferView":16,"componentType":5126,"count":16,"max":[0.0625,0.0625,0.0625],"min":[-0.0625,-0.4375,-0.0625],"type":"VEC3"},{"bufferView":17,"componentType":5126,"count":16,"max":[1,0,1],"min":[-1,0,-1],"type":"VEC3"},{"bufferView":18,"componentType":5126,"count":16,"max":[0.25,0.75],"min":[0,0],"type":"VEC2"},{"bufferView":19,"componentType":5123,"count":24,"max":[15],"min":[0],"type":"SCALAR"},{"bufferView":20,"componentType":5126,"count":16,"max":[0.0625,0.0625,0.0625],"min":[-0.0625,-0.4375,-0.0625],"type":"VEC3"},{"bufferView":21,"componentType":5126,"count":16,"max":[1,0,1],"min":[-1,0,-1],"type":"VEC3"},{"bufferView":22,"componentType":5126,"count":16,"max":[0.25,0.75],"min":[0,0],"type":"VEC2"},{"bufferView":23,"componentType":5123,"count":24,"max":[15],"min":[0],"type":"SCALAR"},{"bufferView":24,"componentType":5126,"count":24,"max":[0.0625,1.0625,0.0625],"min":[-0.0625,-0.125,-0.0625],"type":"VEC3"},{"bufferView":25,"componentType":5126,"count":24,"max":[1,0.3162277638912201,1],"min":[-1,-0.8944271802902222,-1],"type":"VEC3"},{"bufferView":26,"componentType":5126,"count":24,"max":[0.25,0.75],"min":[0,0],"type":"VEC2"},{"bufferView":27,"componentType":5123,"count":36,"max":[23],"min":[0],"type":"SCALAR"}],"materials":[{"pbrMetallicRoughness":{"metallicFactor":0,"roughnessFactor":1},"alphaMode":"MASK","alphaCutoff":0.05,"doubleSided":true}],"meshes":[{"primitives":[{"mode":4,"attributes":{"POSITION":0,"NORMAL":1,"TEXCOORD_0":2},"indices":3,"material":0}]},{"primitives":[{"mode":4,"attributes":{"POSITION":4,"NORMAL":5,"TEXCOORD_0":6},"indices":7,"material":0}]},{"primitives":[{"mode":4,"attributes":{"POSITION":8,"NORMAL":9,"TEXCOORD_0":10},"indices":11,"material":0}]},{"primitives":[{"mode":4,"attributes":{"POSITION":12,"NORMAL":13,"TEXCOORD_0":14},"indices":15,"material":0}]},{"primitives":[{"mode":4,"attributes":{"POSITION":16,"NORMAL":17,"TEXCOORD_0":18},"indices":19,"material":0}]},{"primitives":[{"mode":4,"attributes":{"POSITION":20,"NORMAL":21,"TEXCOORD_0":22},"indices":23,"material":0}]},{"primitives":[{"mode":4,"attributes":{"POSITION":24,"NORMAL":25,"TEXCOORD_0":26},"indices":27,"material":0}]}]}