{"asset":{"version":"2.0","generator":"Blockbench 4.10.3 glTF exporter"},"scenes":[{"nodes":[6],"name":"blockbench_export"}],"scene":0,"nodes":[{"rotation":[0,0,0.2798290140309921,0.9600498543859287],"translation":[0.25,0.4375,0],"name":"base","mesh":0},{"rotation":[0,0,-0.7071067811865475,0.7071067811865476],"translation":[1,0.0625,0],"name":"cuboid","mesh":1},{"translation":[0.5,-0.1875,0],"name":"cuboid","mesh":2},{"rotation":[-0.27059805007309845,-0.27059805007309856,-0.6532814824381871,0.6532814824381894],"translation":[0.3125,0.28125,0],"name":"cuboid","mesh":3},{"rotation":[0,0,0.7071067811865475,0.7071067811865476],"translation":[0.375,0.0625,-0.375],"name":"frame","mesh":4},{"translation":[-0.125,1.1875,0],"name":"bone","children":[1,2,3,4]},{"children":[0,5]}],"bufferViews":[{"buffer":0,"byteOffset":0,"byteLength":912,"target":34962,"byteStride":12},{"buffer":0,"byteOffset":912,"byteLength":912,"target":34962,"byteStride":12},{"buffer":0,"byteOffset":1824,"byteLength":608,"target":34962,"byteStride":8},{"buffer":0,"byteOffset":2432,"byteLength":192,"target":34963},{"buffer":0,"byteOffset":2624,"byteLength":240,"target":34962,"byteStride":12},{"buffer":0,"byteOffset":2864,"byteLength":240,"target":34962,"byteStride":12},{"buffer":0,"byteOffset":3104,"byteLength":160,"target":34962,"byteStride":8},{"buffer":0,"byteOffset":3264,"byteLength":60,"target":34963},{"buffer":0,"byteOffset":3324,"byteLength":288,"target":34962,"byteStride":12},{"buffer":0,"byteOffset":3612,"byteLength":288,"target":34962,"byteStride":12},{"buffer":0,"byteOffset":3900,"byteLength":192,"target":34962,"byteStride":8},{"buffer":0,"byteOffset":4092,"byteLength":72,"target":34963},{"buffer":0,"byteOffset":4164,"byteLength":192,"target":34962,"byteStride":12},{"buffer":0,"byteOffset":4356,"byteLength":192,"target":34962,"byteStride":12},{"buffer":0,"byteOffset":4548,"byteLength":128,"target":34962,"byteStride":8},{"buffer":0,"byteOffset":4676,"byteLength":48,"target":34963},{"buffer":0,"byteOffset":4724,"byteLength":192,"target":34962,"byteStride":12},{"buffer":0,"byteOffset":4916,"byteLength":192,"target":34962,"byteStride":12},{"buffer":0,"byteOffset":5108,"byteLength":128,"target":34962,"byteStride":8},{"buffer":0,"byteOffset":5236,"byteLength":48,"target":34963}],"buffers":[{"byteLength":5284,"uri":"data:application/octet-stream;base64,"}],"accessors":[{"bufferView":0,"componentType":5126,"count":76,"max":[0.4552769362926483,0.875,0.8660253882408142],"min":[-1.1763148307800293,-0.6999739408493042,-0.8660253882408142],"type":"VEC3"},{"bufferView":1,"componentType":5126,"count":76,"max":[1,0.843391478061676,1],"min":[-1,-0.843391478061676,-1],"type":"VEC3"},{"bufferView":2,"componentType":5126,"count":76,"max":[0.59375,0.609375],"min":[0,0.031250014901161194],"type":"VEC2"},{"bufferView":3,"componentType":5123,"count":96,"max":[75],"min":[0],"type":"SCALAR"},{"bufferView":4,"componentType":5126,"count":20,"max":[0.1875,2.25,0.125],"min":[-0.1875,0,-0.125],"type":"VEC3"},{"bufferView":5,"componentType":5126,"count":20,"max":[1,0.8320503234863281,1],"min":[-1,0,-1],"type":"VEC3"},{"bufferView":6,"componentType":5126,"count":20,"max":[0.3828125,0.6875],"min":[0.0703125,0.0703125],"type":"VEC2"},{"bufferView":7,"componentType":5123,"count":30,"max":[19],"min":[0],"type":"SCALAR"},{"bufferView":8,"componentType":5126,"count":24,"max":[0.5,0.5625,0.265625],"min":[-1.1875,-0.0625,-0.265625],"type":"VEC3"},{"bufferView":9,"componentType":5126,"count":24,"max":[1,0.998930037021637,0.9980236887931824],"min":[-0.9320046901702881,-0.9985405206680298,-0.9980236887931824],"type":"VEC3"},{"bufferView":10,"componentType":5126,"count":24,"max":[0.53125,0.40625],"min":[0,0],"type":"VEC2"},{"bufferView":11,"componentType":5123,"count":36,"max":[23],"min":[0],"type":"SCALAR"},{"bufferView":12,"componentType":5126,"count":16,"max":[0.0625,0.625,0.0625],"min":[-0.0625,-0.125,-0.0625],"type":"VEC3"},{"bufferView":13,"componentType":5126,"count":16,"max":[0,1,1],"min":[-1,-1,0],"type":"VEC3"},{"bufferView":14,"componentType":5126,"count":16,"max":[0.1796875,0.65625],"min":[0.1328125,0.5625],"type":"VEC2"},{"bufferView":15,"componentType":5123,"count":24,"max":[15],"min":[0],"type":"SCALAR"},{"bufferView":16,"componentType":5126,"count":16,"max":[0.375,0.125,0.21875],"min":[-0.375,-0.125,-0.21875],"type":"VEC3"},{"bufferView":17,"componentType":5126,"count":16,"max":[1,0,1],"min":[-1,0,-1],"type":"VEC3"},{"bufferView":18,"componentType":5126,"count":16,"max":[0.5234375,0.3203125],"min":[0.0625,0],"type":"VEC2"},{"bufferView":19,"componentType":5123,"count":24,"max":[15],"min":[0],"type":"SCALAR"}],"materials":[{"pbrMetallicRoughness":{"metallicFactor":0,"roughnessFactor":1,"baseColorTexture":{"index":0}},"alphaMode":"MASK","alphaCutoff":0.05,"doubleSided":true}],"textures":[{"sampler":0,"source":0,"name":"SENTRY_RG.png"}],"samplers":[{"magFilter":9728,"minFilter":9728,"wrapS":33071,"wrapT":33071}],"images":[{"mimeType":"image/png","uri":"data:image/png;base64,"}],"meshes":[{"primitives":[{"mode":4,"attributes":{"POSITION":0,"NORMAL":1,"TEXCOORD_0":2},"indices":3,"material":0}]},{"primitives":[{"mode":4,"attributes":{"POSITION":4,"NORMAL":5,"TEXCOORD_0":6},"indices":7,"material":0}]},{"primitives":[{"mode":4,"attributes":{"POSITION":8,"NORMAL":9,"TEXCOORD_0":10},"indices":11,"material":0}]},{"primitives":[{"mode":4,"attributes":{"POSITION":12,"NORMAL":13,"TEXCOORD_0":14},"indices":15,"material":0}]},{"primitives":[{"mode":4,"attributes":{"POSITION":16,"NORMAL":17,"TEXCOORD_0":18},"indices":19,"material":0}]}]}