{"asset":{"version":"2.0","generator":"Blockbench 4.10.3 glTF exporter"},"scenes":[{"nodes":[5],"name":"blockbench_export"}],"scene":0,"nodes":[{"rotation":[0.5000000052683561,-0.4999999947316439,-0.49999999473164386,0.5000000052683561],"translation":[0,0.25,-0.5],"name":"cuboid","mesh":0},{"rotation":[0.23768589232617307,0,0,0.9713420698132614],"translation":[0,0.1875,-0.125],"name":"cuboid","mesh":1},{"rotation":[0,0,-0.7071067811865475,0.7071067811865476],"translation":[-0.3125,0.3125,0.5],"name":"cuboid","mesh":2},{"rotation":[0.7223639620597555,0,0,0.6915130557822694],"translation":[0,0.15625,0.3125],"name":"cuboid","mesh":3},{"translation":[0,0.3125,0.75],"name":"cuboid","mesh":4},{"children":[0,1,2,3,4]}],"bufferViews":[{"buffer":0,"byteOffset":0,"byteLength":528,"target":34962,"byteStride":12},{"buffer":0,"byteOffset":528,"byteLength":528,"target":34962,"byteStride":12},{"buffer":0,"byteOffset":1056,"byteLength":352,"target":34962,"byteStride":8},{"buffer":0,"byteOffset":1408,"byteLength":132,"target":34963},{"buffer":0,"byteOffset":1540,"byteLength":240,"target":34962,"byteStride":12},{"buffer":0,"byteOffset":1780,"byteLength":240,"target":34962,"byteStride":12},{"buffer":0,"byteOffset":2020,"byteLength":160,"target":34962,"byteStride":8},{"buffer":0,"byteOffset":2180,"byteLength":60,"target":34963},{"buffer":0,"byteOffset":2240,"byteLength":288,"target":34962,"byteStride":12},{"buffer":0,"byteOffset":2528,"byteLength":288,"target":34962,"byteStride":12},{"buffer":0,"byteOffset":2816,"byteLength":192,"target":34962,"byteStride":8},{"buffer":0,"byteOffset":3008,"byteLength":72,"target":34963},{"buffer":0,"byteOffset":3080,"byteLength":240,"target":34962,"byteStride":12},{"buffer":0,"byteOffset":3320,"byteLength":240,"target":34962,"byteStride":12},{"buffer":0,"byteOffset":3560,"byteLength":160,"target":34962,"byteStride":8},{"buffer":0,"byteOffset":3720,"byteLength":60,"target":34963},{"buffer":0,"byteOffset":3780,"byteLength":288,"target":34962,"byteStride":12},{"buffer":0,"byteOffset":4068,"byteLength":288,"target":34962,"byteStride":12},{"buffer":0,"byteOffset":4356,"byteLength":192,"target":34962,"byteStride":8},{"buffer":0,"byteOffset":4548,"byteLength":72,"target":34963}],"buffers":[{"byteLength":4620,"uri":"data:application/octet-stream;base64,"}],"accessors":[{"bufferView":0,"componentType":5126,"count":44,"max":[0.1875,1.25,0.125],"min":[-0.1875,0.25,-0.125],"type":"VEC3"},{"bufferView":1,"componentType":5126,"count":44,"max":[1,1,1],"min":[-1,-1,-1],"type":"VEC3"},{"bufferView":2,"componentType":5126,"count":44,"max":[0.9375,0.9375],"min":[0,0],"type":"VEC2"},{"bufferView":3,"componentType":5123,"count":66,"max":[43],"min":[0],"type":"SCALAR"},{"bufferView":4,"componentType":5126,"count":20,"max":[0.09375,-0.0625,0.09375],"min":[-0.09375,-0.4375,-0.09375],"type":"VEC3"},{"bufferView":5,"componentType":5126,"count":20,"max":[1,0,1],"min":[-1,-1,-1],"type":"VEC3"},{"bufferView":6,"componentType":5126,"count":20,"max":[0.8125,0.9375],"min":[0,0.5625],"type":"VEC2"},{"bufferView":7,"componentType":5123,"count":30,"max":[19],"min":[0],"type":"SCALAR"},{"bufferView":8,"componentType":5126,"count":24,"max":[0.125,0.625,0.125],"min":[-0.125,0,-0.125],"type":"VEC3"},{"bufferView":9,"componentType":5126,"count":24,"max":[1,0.9701424837112427,1],"min":[-1,-0.9701424837112427,-1],"type":"VEC3"},{"bufferView":10,"componentType":5126,"count":24,"max":[0.90625,0.875],"min":[0.28125,0],"type":"VEC2"},{"bufferView":11,"componentType":5123,"count":36,"max":[23],"min":[0],"type":"SCALAR"},{"bufferView":12,"componentType":5126,"count":20,"max":[0.15625,0.5625,0.09375],"min":[-0.15625,-0.0625,-0.09375],"type":"VEC3"},{"bufferView":13,"componentType":5126,"count":20,"max":[0.9987523555755615,1,1],"min":[-0.9987523555755615,-0.049937617033720016,-1],"type":"VEC3"},{"bufferView":14,"componentType":5126,"count":20,"max":[0.96875,0.875],"min":[0,0],"type":"VEC2"},{"bufferView":15,"componentType":5123,"count":30,"max":[19],"min":[0],"type":"SCALAR"},{"bufferView":16,"componentType":5126,"count":24,"max":[0.0625,0.1875,0.09375],"min":[-0.0625,0,-0.09375],"type":"VEC3"},{"bufferView":17,"componentType":5126,"count":24,"max":[1,1,1],"min":[-1,-1,-1],"type":"VEC3"},{"bufferView":18,"componentType":5126,"count":24,"max":[0.9375,0.9375],"min":[0.1875,0],"type":"VEC2"},{"bufferView":19,"componentType":5123,"count":36,"max":[23],"min":[0],"type":"SCALAR"}],"materials":[{"pbrMetallicRoughness":{"metallicFactor":0,"roughnessFactor":1,"baseColorTexture":{"index":0}},"alphaMode":"MASK","alphaCutoff":0.05,"doubleSided":true}],"textures":[{"sampler":0,"source":0,"name":"SG.png"}],"samplers":[{"magFilter":9728,"minFilter":9728,"wrapS":33071,"wrapT":33071}],"images":[{"mimeType":"image/png","uri":"data:image/png;base64,"}],"meshes":[{"primitives":[{"mode":4,"attributes":{"POSITION":0,"NORMAL":1,"TEXCOORD_0":2},"indices":3,"material":0}]},{"primitives":[{"mode":4,"attributes":{"POSITION":4,"NORMAL":5,"TEXCOORD_0":6},"indices":7,"material":0}]},{"primitives":[{"mode":4,"attributes":{"POSITION":8,"NORMAL":9,"TEXCOORD_0":10},"indices":11,"material":0}]},{"primitives":[{"mode":4,"attributes":{"POSITION":12,"NORMAL":13,"TEXCOORD_0":14},"indices":15,"material":0}]},{"primitives":[{"mode":4,"attributes":{"POSITION":16,"NORMAL":17,"TEXCOORD_0":18},"indices":19,"material":0}]}]}