{"asset":{"version":"2.0","generator":"Blockbench 4.10.3 glTF exporter"},"scenes":[{"nodes":[8],"name":"blockbench_export"}],"scene":0,"nodes":[{"translation":[0,-0.0625,0],"name":"cuboid","mesh":0},{"rotation":[0,-1,0,6.123233995736766e-17],"translation":[0,0.8125,0],"name":"cuboid","mesh":1},{"name":"cuboid","mesh":2},{"rotation":[0.7071067811865475,0,0,0.7071067811865476],"translation":[0,0,-0.125],"name":"cuboid","mesh":3},{"rotation":[0.27059805007309834,-0.2705980500730987,0.6532814824381874,0.6532814824381892],"translation":[-0.125,0,0.375],"name":"cuboid","mesh":4},{"rotation":[0,0,0.9238795325112867,0.38268343236508984],"translation":[-0.6875,0,0.375],"name":"beveled_cuboid","mesh":5},{"rotation":[0,0,-0.3826834323650898,0.9238795325112867],"translation":[0,0.5625,0.125],"name":"hand","children":[3,4,5]},{"translation":[0,0.375,0],"name":"body","children":[1,2,6]},{"children":[0,7]}],"bufferViews":[{"buffer":0,"byteOffset":0,"byteLength":336,"target":34962,"byteStride":12},{"buffer":0,"byteOffset":336,"byteLength":336,"target":34962,"byteStride":12},{"buffer":0,"byteOffset":672,"byteLength":224,"target":34962,"byteStride":8},{"buffer":0,"byteOffset":896,"byteLength":72,"target":34963},{"buffer":0,"byteOffset":968,"byteLength":240,"target":34962,"byteStride":12},{"buffer":0,"byteOffset":1208,"byteLength":240,"target":34962,"byteStride":12},{"buffer":0,"byteOffset":1448,"byteLength":160,"target":34962,"byteStride":8},{"buffer":0,"byteOffset":1608,"byteLength":60,"target":34963},{"buffer":0,"byteOffset":1668,"byteLength":240,"target":34962,"byteStride":12},{"buffer":0,"byteOffset":1908,"byteLength":240,"target":34962,"byteStride":12},{"buffer":0,"byteOffset":2148,"byteLength":160,"target":34962,"byteStride":8},{"buffer":0,"byteOffset":2308,"byteLength":60,"target":34963},{"buffer":0,"byteOffset":2368,"byteLength":288,"target":34962,"byteStride":12},{"buffer":0,"byteOffset":2656,"byteLength":288,"target":34962,"byteStride":12},{"buffer":0,"byteOffset":2944,"byteLength":192,"target":34962,"byteStride":8},{"buffer":0,"byteOffset":3136,"byteLength":72,"target":34963},{"buffer":0,"byteOffset":3208,"byteLength":288,"target":34962,"byteStride":12},{"buffer":0,"byteOffset":3496,"byteLength":288,"target":34962,"byteStride":12},{"buffer":0,"byteOffset":3784,"byteLength":192,"target":34962,"byteStride":8},{"buffer":0,"byteOffset":3976,"byteLength":72,"target":34963},{"buffer":0,"byteOffset":4048,"byteLength":912,"target":34962,"byteStride":12},{"buffer":0,"byteOffset":4960,"byteLength":912,"target":34962,"byteStride":12},{"buffer":0,"byteOffset":5872,"byteLength":608,"target":34962,"byteStride":8},{"buffer":0,"byteOffset":6480,"byteLength":204,"target":34963}],"buffers":[{"byteLength":6684,"uri":"data:application/octet-stream;base64,"}],"accessors":[{"bufferView":0,"componentType":5126,"count":28,"max":[0.5303300619125366,0.4375,0.5303300619125366],"min":[-0.5303300619125366,0.0625,-0.5303300619125366],"type":"VEC3"},{"bufferView":1,"componentType":5126,"count":28,"max":[0.9238795638084412,1,0.6532815098762512],"min":[-0.6532815098762512,-1,-0.9238795638084412],"type":"VEC3"},{"bufferView":2,"componentType":5126,"count":28,"max":[0.515625,0.421875],"min":[0,0],"type":"VEC2"},{"bufferView":3,"componentType":5123,"count":36,"max":[27],"min":[0],"type":"SCALAR"},{"bufferView":4,"componentType":5126,"count":20,"max":[0.125,0.75,0.375],"min":[-0.125,0,-0.375],"type":"VEC3"},{"bufferView":5,"componentType":5126,"count":20,"max":[0,1,1],"min":[0,-1,-1],"type":"VEC3"},{"bufferView":6,"componentType":5126,"count":20,"max":[0.53125,0.6875],"min":[0.09375,0.1718750149011612],"type":"VEC2"},{"bufferView":7,"componentType":5123,"count":30,"max":[19],"min":[0],"type":"SCALAR"},{"bufferView":8,"componentType":5126,"count":20,"max":[0.1875,0.75,0.1875],"min":[-0.1875,0,-0.1875],"type":"VEC3"},{"bufferView":9,"componentType":5126,"count":20,"max":[0.9965457320213318,1,0.9965457320213318],"min":[-0.9965457320213318,0.08304548263549805,-0.9965457320213318],"type":"VEC3"},{"bufferView":10,"componentType":5126,"count":20,"max":[0.515625,0.75],"min":[0,0],"type":"VEC2"},{"bufferView":11,"componentType":5123,"count":30,"max":[19],"min":[0],"type":"SCALAR"},{"bufferView":12,"componentType":5126,"count":24,"max":[0.125,0.625,0.125],"min":[-0.125,0.125,-0.125],"type":"VEC3"},{"bufferView":13,"componentType":5126,"count":24,"max":[1,1,1],"min":[-1,-1,-1],"type":"VEC3"},{"bufferView":14,"componentType":5126,"count":24,"max":[0.65625,0.703125],"min":[0,0],"type":"VEC2"},{"bufferView":15,"componentType":5123,"count":36,"max":[23],"min":[0],"type":"SCALAR"},{"bufferView":16,"componentType":5126,"count":24,"max":[0.125,0.625,0.125],"min":[-0.125,0,-0.125],"type":"VEC3"},{"bufferView":17,"componentType":5126,"count":24,"max":[1,1,1],"min":[-1,-1,-1],"type":"VEC3"},{"bufferView":18,"componentType":5126,"count":24,"max":[0.65625,0.671875],"min":[0.453125,0],"type":"VEC2"},{"bufferView":19,"componentType":5123,"count":36,"max":[23],"min":[0],"type":"SCALAR"},{"bufferView":20,"componentType":5126,"count":76,"max":[0.15625,0.625,0.15625],"min":[-0.15625,0,-0.15625],"type":"VEC3"},{"bufferView":21,"componentType":5126,"count":76,"max":[0.7071067690849304,0.7071067690849304,1],"min":[-0.7071067690849304,-1,-1],"type":"VEC3"},{"bufferView":22,"componentType":5126,"count":76,"max":[0.625,0.703125],"min":[0.0625,0.062499985098838806],"type":"VEC2"},{"bufferView":23,"componentType":5123,"count":102,"max":[75],"min":[0],"type":"SCALAR"}],"materials":[{"pbrMetallicRoughness":{"metallicFactor":0,"roughnessFactor":1,"baseColorTexture":{"index":0}},"alphaMode":"MASK","alphaCutoff":0.05,"doubleSided":true}],"textures":[{"sampler":0,"source":0,"name":"SOLDIER_SG.png"}],"samplers":[{"magFilter":9728,"minFilter":9728,"wrapS":33071,"wrapT":33071}],"images":[{"mimeType":"image/png","uri":"data:image/png;base64,"}],"meshes":[{"primitives":[{"mode":4,"attributes":{"POSITION":0,"NORMAL":1,"TEXCOORD_0":2},"indices":3,"material":0}]},{"primitives":[{"mode":4,"attributes":{"POSITION":4,"NORMAL":5,"TEXCOORD_0":6},"indices":7,"material":0}]},{"primitives":[{"mode":4,"attributes":{"POSITION":8,"NORMAL":9,"TEXCOORD_0":10},"indices":11,"material":0}]},{"primitives":[{"mode":4,"attributes":{"POSITION":12,"NORMAL":13,"TEXCOORD_0":14},"indices":15,"material":0}]},{"primitives":[{"mode":4,"attributes":{"POSITION":16,"NORMAL":17,"TEXCOORD_0":18},"indices":19,"material":0}]},{"primitives":[{"mode":4,"attributes":{"POSITION":20,"NORMAL":21,"TEXCOORD_0":22},"indices":23,"material":0}]}]}