{"asset":{"version":"2.0","generator":"Blockbench 4.10.3 glTF exporter"},"scenes":[{"nodes":[7],"name":"blockbench_export"}],"scene":0,"nodes":[{"name":"cuboid","mesh":0},{"translation":[0,0.625,-0.3125],"name":"cuboid","mesh":1},{"translation":[0,-0.1875,0],"name":"cuboid","mesh":2},{"translation":[0,0.4375,-0.375],"name":"left","children":[1,2]},{"rotation":[0,-1,0,6.123233995736766e-17],"translation":[0,0.625,0.3125],"name":"cuboid","mesh":3},{"translation":[0,-0.1875,0],"name":"cuboid","mesh":4},{"translation":[0,0.4375,0.375],"name":"right","children":[4,5]},{"children":[0,3,6]}],"bufferViews":[{"buffer":0,"byteOffset":0,"byteLength":480,"target":34962,"byteStride":12},{"buffer":0,"byteOffset":480,"byteLength":480,"target":34962,"byteStride":12},{"buffer":0,"byteOffset":960,"byteLength":320,"target":34962,"byteStride":8},{"buffer":0,"byteOffset":1280,"byteLength":120,"target":34963},{"buffer":0,"byteOffset":1400,"byteLength":576,"target":34962,"byteStride":12},{"buffer":0,"byteOffset":1976,"byteLength":576,"target":34962,"byteStride":12},{"buffer":0,"byteOffset":2552,"byteLength":384,"target":34962,"byteStride":8},{"buffer":0,"byteOffset":2936,"byteLength":132,"target":34963},{"buffer":0,"byteOffset":3068,"byteLength":240,"target":34962,"byteStride":12},{"buffer":0,"byteOffset":3308,"byteLength":240,"target":34962,"byteStride":12},{"buffer":0,"byteOffset":3548,"byteLength":160,"target":34962,"byteStride":8},{"buffer":0,"byteOffset":3708,"byteLength":60,"target":34963},{"buffer":0,"byteOffset":3768,"byteLength":576,"target":34962,"byteStride":12},{"buffer":0,"byteOffset":4344,"byteLength":576,"target":34962,"byteStride":12},{"buffer":0,"byteOffset":4920,"byteLength":384,"target":34962,"byteStride":8},{"buffer":0,"byteOffset":5304,"byteLength":132,"target":34963},{"buffer":0,"byteOffset":5436,"byteLength":240,"target":34962,"byteStride":12},{"buffer":0,"byteOffset":5676,"byteLength":240,"target":34962,"byteStride":12},{"buffer":0,"byteOffset":5916,"byteLength":160,"target":34962,"byteStride":8},{"buffer":0,"byteOffset":6076,"byteLength":60,"target":34963}],"buffers":[{"byteLength":6136,"uri":"data:application/octet-stream;base64,"}],"accessors":[{"bufferView":0,"componentType":5126,"count":40,"max":[0.6875,0.5,0.75],"min":[-0.6875,0,-0.75],"type":"VEC3"},{"bufferView":1,"componentType":5126,"count":40,"max":[0.9222246408462524,0.986393928527832,0.8944271802902222],"min":[-0.9222246408462524,-1,-0.8944271802902222],"type":"VEC3"},{"bufferView":2,"componentType":5126,"count":40,"max":[0.4765625,0.40625],"min":[0,0],"type":"VEC2"},{"bufferView":3,"componentType":5123,"count":60,"max":[39],"min":[0],"type":"SCALAR"},{"bufferView":4,"componentType":5126,"count":48,"max":[0.3535533845424652,0.6875,0.15625],"min":[-0.3535533845424652,-0.3535533845424652,-0.25],"type":"VEC3"},{"bufferView":5,"componentType":5126,"count":48,"max":[1,1,1],"min":[-1,-0.9492406845092773,-1],"type":"VEC3"},{"bufferView":6,"componentType":5126,"count":48,"max":[0.515625,0.53125],"min":[0,0.14634844660758972],"type":"VEC2"},{"bufferView":7,"componentType":5123,"count":66,"max":[47],"min":[0],"type":"SCALAR"},{"bufferView":8,"componentType":5126,"count":20,"max":[0.25,1.4375,0.25],"min":[-0.25,0.125,-0.25],"type":"VEC3"},{"bufferView":9,"componentType":5126,"count":20,"max":[1,1,1],"min":[-1,0,-1],"type":"VEC3"},{"bufferView":10,"componentType":5126,"count":20,"max":[0.3515625,0.46875],"min":[0.0625,0],"type":"VEC2"},{"bufferView":11,"componentType":5123,"count":30,"max":[19],"min":[0],"type":"SCALAR"},{"bufferView":12,"componentType":5126,"count":48,"max":[0.3535533845424652,0.6875,0.15625],"min":[-0.3535533845424652,-0.3535533845424652,-0.25],"type":"VEC3"},{"bufferView":13,"componentType":5126,"count":48,"max":[1,1,1],"min":[-1,-0.9492406845092773,-1],"type":"VEC3"},{"bufferView":14,"componentType":5126,"count":48,"max":[0.515625,0.5234375],"min":[0.125,0.031249672174453735],"type":"VEC2"},{"bufferView":15,"componentType":5123,"count":66,"max":[47],"min":[0],"type":"SCALAR"},{"bufferView":16,"componentType":5126,"count":20,"max":[0.25,1.4375,0.25],"min":[-0.25,0.125,-0.25],"type":"VEC3"},{"bufferView":17,"componentType":5126,"count":20,"max":[1,1,1],"min":[-1,0,-1],"type":"VEC3"},{"bufferView":18,"componentType":5126,"count":20,"max":[0.2890625,0.46875],"min":[0,0],"type":"VEC2"},{"bufferView":19,"componentType":5123,"count":30,"max":[19],"min":[0],"type":"SCALAR"}],"materials":[{"pbrMetallicRoughness":{"metallicFactor":0,"roughnessFactor":1,"baseColorTexture":{"index":0}},"alphaMode":"MASK","alphaCutoff":0.05,"doubleSided":true}],"textures":[{"sampler":0,"source":0,"name":"SOLDIER_PL"}],"samplers":[{"magFilter":9728,"minFilter":9728,"wrapS":33071,"wrapT":33071}],"images":[{"mimeType":"image/png","uri":"data:image/png;base64,"}],"meshes":[{"primitives":[{"mode":4,"attributes":{"POSITION":0,"NORMAL":1,"TEXCOORD_0":2},"indices":3,"material":0}]},{"primitives":[{"mode":4,"attributes":{"POSITION":4,"NORMAL":5,"TEXCOORD_0":6},"indices":7,"material":0}]},{"primitives":[{"mode":4,"attributes":{"POSITION":8,"NORMAL":9,"TEXCOORD_0":10},"indices":11,"material":0}]},{"primitives":[{"mode":4,"attributes":{"POSITION":12,"NORMAL":13,"TEXCOORD_0":14},"indices":15,"material":0}]},{"primitives":[{"mode":4,"attributes":{"POSITION":16,"NORMAL":17,"TEXCOORD_0":18},"indices":19,"material":0}]}]}