{"asset":{"version":"2.0","generator":"Blockbench 4.10.3 glTF exporter"},"scenes":[{"nodes":[4],"name":"blockbench_export"}],"scene":0,"nodes":[{"rotation":[-0.7071067811865475,0,0,0.7071067811865476],"translation":[0,1.125,0.4375],"name":"container","mesh":0},{"rotation":[0.7071067811865475,0,0,0.7071067811865476],"translation":[0,1.6875,-0.875],"name":"cuboid","mesh":1},{"rotation":[0.7071067811865475,0,0,0.7071067811865476],"translation":[-1.375,2.125,0],"name":"sphere","mesh":2},{"rotation":[0.7071067811865475,0,0,0.7071067811865476],"translation":[1.375,2.125,0],"name":"sphere","mesh":3},{"children":[0,1,2,3]}],"bufferViews":[{"buffer":0,"byteOffset":0,"byteLength":288,"target":34962,"byteStride":12},{"buffer":0,"byteOffset":288,"byteLength":288,"target":34962,"byteStride":12},{"buffer":0,"byteOffset":576,"byteLength":192,"target":34962,"byteStride":8},{"buffer":0,"byteOffset":768,"byteLength":72,"target":34963},{"buffer":0,"byteOffset":840,"byteLength":672,"target":34962,"byteStride":12},{"buffer":0,"byteOffset":1512,"byteLength":672,"target":34962,"byteStride":12},{"buffer":0,"byteOffset":2184,"byteLength":448,"target":34962,"byteStride":8},{"buffer":0,"byteOffset":2632,"byteLength":168,"target":34963},{"buffer":0,"byteOffset":2800,"byteLength":1344,"target":34962,"byteStride":12},{"buffer":0,"byteOffset":4144,"byteLength":1344,"target":34962,"byteStride":12},{"buffer":0,"byteOffset":5488,"byteLength":896,"target":34962,"byteStride":8},{"buffer":0,"byteOffset":6384,"byteLength":288,"target":34963},{"buffer":0,"byteOffset":6672,"byteLength":1344,"target":34962,"byteStride":12},{"buffer":0,"byteOffset":8016,"byteLength":1344,"target":34962,"byteStride":12},{"buffer":0,"byteOffset":9360,"byteLength":896,"target":34962,"byteStride":8},{"buffer":0,"byteOffset":10256,"byteLength":288,"target":34963}],"buffers":[{"byteLength":10544,"uri":"data:application/octet-stream;base64,"}],"accessors":[{"bufferView":0,"componentType":5126,"count":24,"max":[0.75,3.5,0.75],"min":[-0.75,-0.5,-0.75],"type":"VEC3"},{"bufferView":1,"componentType":5126,"count":24,"max":[1,1,1],"min":[-1,-1,-1],"type":"VEC3"},{"bufferView":2,"componentType":5126,"count":24,"max":[0.5,0.5],"min":[0.125,0],"type":"VEC2"},{"bufferView":3,"componentType":5123,"count":36,"max":[23],"min":[0],"type":"SCALAR"},{"bufferView":4,"componentType":5126,"count":56,"max":[1.1875,3.375,1],"min":[-1.1875,-1.9375,-0.8125],"type":"VEC3"},{"bufferView":5,"componentType":5126,"count":56,"max":[0.9776849150657654,1,1],"min":[-0.9776849150657654,-0.7348034381866455,-1],"type":"VEC3"},{"bufferView":6,"componentType":5126,"count":56,"max":[0.7030578851699829,0.6444640755653381],"min":[0,0],"type":"VEC2"},{"bufferView":7,"componentType":5123,"count":84,"max":[55],"min":[0],"type":"SCALAR"},{"bufferView":8,"componentType":5126,"count":112,"max":[0.625,0.8125,0.625],"min":[-0.625,-1.0303300619125366,-0.625],"type":"VEC3"},{"bufferView":9,"componentType":5126,"count":112,"max":[0.9845808744430542,0.895479142665863,0.9845808744430542],"min":[-0.9845808744430542,-0.5976771712303162,-0.9845808744430542],"type":"VEC3"},{"bufferView":10,"componentType":5126,"count":112,"max":[0.6188362836837769,0.6227425336837769],"min":[0.01171875,0.001225993037223816],"type":"VEC2"},{"bufferView":11,"componentType":5123,"count":144,"max":[111],"min":[0],"type":"SCALAR"},{"bufferView":12,"componentType":5126,"count":112,"max":[0.625,0.8125,0.625],"min":[-0.625,-1.0303300619125366,-0.625],"type":"VEC3"},{"bufferView":13,"componentType":5126,"count":112,"max":[0.9845808744430542,0.895479142665863,0.9845808744430542],"min":[-0.9845808744430542,-0.5976771712303162,-0.9845808744430542],"type":"VEC3"},{"bufferView":14,"componentType":5126,"count":112,"max":[0.6188362836837769,0.6227425336837769],"min":[0.01171875,0.001225993037223816],"type":"VEC2"},{"bufferView":15,"componentType":5123,"count":144,"max":[111],"min":[0],"type":"SCALAR"}],"materials":[{"pbrMetallicRoughness":{"metallicFactor":0,"roughnessFactor":1,"baseColorTexture":{"index":0}},"alphaMode":"MASK","alphaCutoff":0.05,"doubleSided":true}],"textures":[{"sampler":0,"source":0,"name":"SHUTTLE.png"}],"samplers":[{"magFilter":9728,"minFilter":9728,"wrapS":33071,"wrapT":33071}],"images":[{"mimeType":"image/png","uri":"data:image/png;base64,"}],"meshes":[{"primitives":[{"mode":4,"attributes":{"POSITION":0,"NORMAL":1,"TEXCOORD_0":2},"indices":3,"material":0}]},{"primitives":[{"mode":4,"attributes":{"POSITION":4,"NORMAL":5,"TEXCOORD_0":6},"indices":7,"material":0}]},{"primitives":[{"mode":4,"attributes":{"POSITION":8,"NORMAL":9,"TEXCOORD_0":10},"indices":11,"material":0}]},{"primitives":[{"mode":4,"attributes":{"POSITION":12,"NORMAL":13,"TEXCOORD_0":14},"indices":15,"material":0}]}]}